# xmcd
#
# Track frame offsets:
#	150
#	23125
#	25528
#	45350
#	49490
#	66568
#	69720
#	88353
#	91075
#	95248
#	113650
#	119905
#	135815
#	138343
#	160110
#	163318
#	178880
#	181588
#	204925
#
# Disc length: 3063 seconds
#
# Revision: 2
# Processed by: cddbd v1.4PL0 Copyright (c) Steve Scherf et al.
# Submitted via: EasyCDDAExtractor 4.5.0.2
#
DISCID=0b0bf513
DTITLE=Ed Motta - Um Contrato com Deus
DYEAR=1989
DGENRE=Soul
TTITLE0=Do You Have Other Love
TTITLE1=Rub U'Dub Styley
TTITLE2=Body
TTITLE3=Ed's Blue
TTITLE4=Já!!!
TTITLE5=Party Everywhere
TTITLE6=Solução
TTITLE7=What Would You Like?
TTITLE8=What Would You Like?
TTITLE9=Um Jantar para Dois
TTITLE10=Bye-Bye Bird
TTITLE11=Shake Shake Baby
TTITLE12=Ed's Reggae
TTITLE13=Sombras do Meu Destino
TTITLE14=Ed's Groove
TTITLE15=Um Contrato com Deus
TTITLE16=Goodnight Irene
TTITLE17=Do You Have Other Love
TTITLE18=Solução
EXTD=
EXTT0=
EXTT1=
EXTT2=
EXTT3=
EXTT4=
EXTT5=
EXTT6=
EXTT7=
EXTT8=
EXTT9=
EXTT10=
EXTT11=
EXTT12=
EXTT13=
EXTT14=
EXTT15=
EXTT16=
EXTT17=
EXTT18=
PLAYORDER=
